<svg xmlns="http://www.w3.org/2000/svg" viewBox="0 0 24 24">
    <path fill="#054a8f" d="M19.28,0H4.72C2.12,0,0,2.12,0,4.72v14.56c0,2.6,2.12,4.72,4.72,4.72h14.56c2.6,0,4.72-2.12,4.72-4.72V4.72c0-2.6-2.12-4.72-4.72-4.72h0Z"></path>
    <rect fill="#ffcb05" x="1.32" y="1.32" width="21.36" height="21.36" rx="3.4" ry="3.4"></rect>
    <path fill="#054a8f" d="M20.94,12c0-.85-.39-2.4-2.93-3.47.34-2.74-.81-3.85-1.54-4.27-.45-.26-.94-.39-1.48-.39-.94,0-1.95.4-2.99,1.19-1.05-.79-2.05-1.19-2.99-1.19-.54,0-1.03.13-1.48.39-.73.42-1.88,1.54-1.54,4.27-2.54,1.08-2.93,2.62-2.93,3.47s.39,2.4,2.93,3.47c-.34,2.74.81,3.85,1.54,4.27.45.26.94.39,1.48.39.94,0,1.95-.4,2.99-1.19,1.05.79,2.05,1.19,2.99,1.19.54,0,1.03-.13,1.48-.39.73-.42,1.88-1.54,1.54-4.27,2.54-1.08,2.93-2.62,2.93-3.47ZM17.53,15.15h0s0,0,0,0h0ZM17.53,8.85h0s0,0,0,0h0ZM6.5,15.21h0,0ZM6.47,15.15h0s0,.01,0,.01h0ZM12.03,18.37h0s0,0,0,0Z"></path>
    <path fill="#fff" d="M12,13.22c-.67,0-1.22-.55-1.22-1.22s.55-1.22,1.22-1.22,1.22.55,1.22,1.22-.55,1.22-1.22,1.22Z"></path>
    <path fill="#fff" d="M17.23,9.63c-.23-.09-.46-.17-.71-.24.06-.25.11-.5.15-.73.26-1.64-.04-2.8-.85-3.27-.25-.14-.52-.21-.82-.21-.7,0-1.53.37-2.43,1.1-.19.15-.37.32-.56.49-.19-.18-.37-.34-.56-.49-.9-.73-1.73-1.1-2.43-1.1-.3,0-.58.07-.82.21-.81.47-1.12,1.63-.85,3.27.04.24.09.48.15.73-.25.07-.48.15-.71.24-1.55.59-2.4,1.43-2.4,2.37s.85,1.78,2.4,2.37c.23.09.46.17.71.24-.06.25-.11.5-.15.73-.26,1.64.04,2.8.85,3.27.25.14.52.21.82.21.7,0,1.53-.37,2.43-1.1.19-.15.37-.32.56-.49.19.18.37.34.56.49.9.73,1.73,1.1,2.43,1.1.3,0,.58-.07.82-.21.81-.47,1.12-1.63.85-3.27-.04-.24-.09-.48-.15-.73.25-.07.48-.15.71-.24,1.55-.59,2.4-1.43,2.4-2.37s-.85-1.78-2.4-2.37ZM13.15,7.01c.72-.58,1.37-.9,1.83-.9.14,0,.26.03.37.09.44.25.59,1.11.4,2.3-.03.21-.08.43-.13.65-.57-.12-1.18-.22-1.81-.28-.37-.52-.75-1-1.15-1.43.17-.16.33-.3.5-.44ZM8.95,13.1c.09.17.18.33.28.5.1.17.19.33.29.49-.3-.04-.59-.1-.87-.15.09-.27.19-.55.3-.83ZM8.64,10.06c.28-.06.57-.11.87-.15-.1.16-.2.32-.29.49-.1.17-.19.33-.28.5-.11-.28-.21-.56-.3-.83ZM9.44,12c.18-.38.38-.76.6-1.13.22-.38.45-.74.68-1.09.42-.03.85-.04,1.28-.04s.86.02,1.28.04c.23.35.46.71.68,1.09s.42.76.6,1.13c-.18.38-.38.76-.6,1.13-.22.38-.45.74-.68,1.09-.42.03-.85.04-1.28.04s-.86-.02-1.28-.04c-.23-.35-.46-.71-.68-1.09-.22-.38-.42-.76-.6-1.13ZM14.78,13.6c.1-.17.19-.33.28-.5.11.28.21.56.3.83-.28.06-.57.11-.87.15.1-.16.2-.32.29-.49ZM15.05,10.9c-.09-.17-.18-.33-.28-.5s-.19-.33-.29-.49c.3.04.59.1.87.15-.09.27-.19.55-.3.83ZM12,8.12c.19.21.38.44.57.68-.19,0-.38,0-.57,0s-.38,0-.57,0c.19-.24.38-.47.57-.68ZM8.65,6.2c.1-.06.23-.09.37-.09.46,0,1.11.31,1.83.9.17.13.33.28.5.44-.39.43-.78.91-1.15,1.43-.63.06-1.24.15-1.81.28-.05-.22-.1-.44-.13-.65-.19-1.19-.04-2.05.4-2.3ZM7.73,13.71c-.22-.07-.43-.14-.63-.21-1.12-.43-1.8-.99-1.8-1.5s.67-1.07,1.8-1.5c.2-.08.41-.15.63-.21.18.56.4,1.13.67,1.71-.26.58-.49,1.15-.67,1.71ZM10.85,16.99c-.72.58-1.37.9-1.83.9-.14,0-.26-.03-.37-.09-.44-.25-.59-1.11-.4-2.3.03-.21.08-.43.13-.65.57.12,1.18.22,1.81.28.37.52.75,1,1.15,1.43-.17.16-.33.3-.5.44ZM12,15.88c-.19-.21-.38-.44-.57-.68.19,0,.38,0,.57,0s.38,0,.57,0c-.19.24-.38.47-.57.68ZM15.35,17.8c-.1.06-.23.09-.37.09-.46,0-1.11-.31-1.83-.9-.17-.13-.33-.28-.5-.44.39-.43.78-.91,1.15-1.43.63-.06,1.24-.15,1.81-.28.05.22.1.44.13.65.19,1.19.04,2.05-.4,2.3ZM16.9,13.5c-.2.08-.41.15-.63.21-.18-.56-.4-1.13-.67-1.71.26-.58.49-1.15.67-1.71.22.07.43.14.63.21,1.12.43,1.8.99,1.8,1.5s-.67,1.07-1.8,1.5Z"></path>
</svg>