<?xml version="1.0" encoding="UTF-8"?>
<svg xmlns="http://www.w3.org/2000/svg" viewBox="0 0 217.2 101.62">
    <path fill="#054a8f"
        d="M148.49,31.27c0-3.1-1.56-8.89-12-12.88-.06-.02-.11-.04-.17-.07.01-.06.02-.12.03-.18,1.77-11.03-2.47-15.28-5.15-16.83C129.67.44,127.97,0,126.12,0c-3.71,0-7.77,1.77-12.08,5.27-.05.04-.1.08-.14.12-.05-.04-.1-.08-.14-.12C109.45,1.77,105.39,0,101.68,0c-1.85,0-3.55.44-5.07,1.32-2.68,1.55-6.92,5.79-5.15,16.83,0,.06.02.12.03.18-.06.02-.12.04-.17.07-10.44,3.99-12,9.78-12,12.88s1.56,8.89,12,12.88c.06.02.11.04.17.07-.01.06-.02.12-.03.18-1.77,11.03,2.47,15.28,5.15,16.83,1.52.88,3.23,1.32,5.07,1.32,3.71,0,7.77-1.77,12.08-5.27.05-.04.1-.08.14-.12.05.04.1.08.14.12,4.31,3.5,8.37,5.27,12.08,5.27,1.85,0,3.55-.44,5.07-1.32,2.68-1.55,6.92-5.8,5.15-16.83,0-.06-.02-.12-.03-.18.06-.02.12-.04.17-.07,10.44-3.99,12-9.78,12-12.88ZM132.34,31.27c.38-.88.74-1.76,1.07-2.63,2.6,1.08,3.83,2.1,4.27,2.63-.44.53-1.67,1.55-4.27,2.63-.33-.87-.69-1.75-1.07-2.63ZM125.8,10.67c.23.65.5,2.23.14,5.01-.92-.15-1.86-.28-2.81-.39-.57-.77-1.15-1.52-1.74-2.24,2.15-1.64,3.66-2.25,4.42-2.38ZM106.42,13.06c-.59.73-1.17,1.48-1.74,2.24-.95.11-1.89.24-2.81.39-.36-2.79-.09-4.36.14-5.01.75.13,2.27.74,4.42,2.38ZM101.86,46.86c.92.15,1.86.28,2.81.39.57.77,1.15,1.52,1.74,2.24-2.15,1.64-3.66,2.25-4.42,2.38-.23-.65-.5-2.23-.14-5.01ZM121.38,49.49c.59-.73,1.17-1.48,1.74-2.24.95-.11,1.89-.24,2.81-.39.36,2.79.09,4.36-.14,5.01-.75-.13-2.27-.74-4.42-2.38ZM94.39,33.9c-2.6-1.08-3.83-2.1-4.27-2.63.44-.53,1.67-1.55,4.27-2.63.33.87.69,1.75,1.07,2.63-.38.88-.74,1.76-1.07,2.63Z" />
    <path fill="#fff"
        d="M135.27,21.58c-.92-.35-1.89-.68-2.9-.98.24-1.02.45-2.02.6-3,1.07-6.68-.17-11.42-3.49-13.34-1-.58-2.13-.87-3.37-.87-2.85,0-6.26,1.53-9.93,4.51-.76.62-1.53,1.3-2.29,2.02-.76-.72-1.53-1.4-2.29-2.02-3.67-2.98-7.07-4.51-9.93-4.51-1.23,0-2.36.29-3.37.87-3.32,1.92-4.56,6.65-3.49,13.34.16.97.36,1.97.6,3-1.01.3-1.98.63-2.9.98-6.32,2.41-9.8,5.86-9.8,9.69s3.48,7.28,9.8,9.69c.92.35,1.89.68,2.9.98-.24,1.02-.45,2.02-.6,3-1.07,6.68.17,11.42,3.49,13.34,1,.58,2.13.87,3.37.87,2.85,0,6.26-1.53,9.93-4.51.76-.62,1.53-1.3,2.29-2.02.76.72,1.53,1.4,2.29,2.02,3.67,2.98,7.07,4.51,9.93,4.51,1.23,0,2.36-.29,3.37-.87,3.32-1.92,4.56-6.65,3.49-13.34-.16-.97-.36-1.97-.6-3,1.01-.3,1.98-.63,2.9-.98,6.32-2.41,9.8-5.86,9.8-9.69s-3.48-7.28-9.8-9.69ZM118.61,10.9c2.93-2.38,5.58-3.66,7.46-3.66.57,0,1.07.12,1.49.36,1.79,1.04,2.4,4.55,1.62,9.41-.14.86-.32,1.75-.53,2.66-2.33-.5-4.81-.88-7.4-1.13-1.51-2.12-3.08-4.08-4.68-5.84.68-.64,1.36-1.24,2.04-1.79ZM101.43,35.78c.37.68.75,1.36,1.14,2.04s.79,1.35,1.2,2c-1.23-.18-2.42-.39-3.57-.63.37-1.12.78-2.26,1.24-3.41ZM100.19,23.36c1.15-.24,2.34-.45,3.57-.63-.41.66-.8,1.33-1.2,2-.39.68-.77,1.36-1.14,2.04-.46-1.15-.87-2.29-1.24-3.41ZM103.43,31.27c.75-1.54,1.57-3.09,2.46-4.63s1.82-3.02,2.78-4.44c1.71-.12,3.46-.18,5.24-.18s3.53.06,5.24.18c.96,1.42,1.89,2.9,2.78,4.44.89,1.54,1.71,3.09,2.46,4.63-.75,1.54-1.57,3.09-2.46,4.63-.89,1.54-1.82,3.02-2.78,4.44-1.71.12-3.46.18-5.24.18s-3.53-.06-5.24-.18c-.96-1.42-1.89-2.9-2.78-4.44-.89-1.54-1.71-3.09-2.46-4.63ZM125.24,37.82c.39-.68.77-1.36,1.14-2.04.46,1.15.87,2.29,1.24,3.41-1.15.24-2.34.45-3.57.63.41-.66.8-1.33,1.2-2ZM126.37,26.77c-.37-.68-.75-1.36-1.14-2.04-.39-.68-.79-1.35-1.2-2,1.23.18,2.42.39,3.57.63-.37,1.12-.78,2.26-1.24,3.41ZM113.9,15.44c.79.87,1.56,1.8,2.33,2.78-.77-.02-1.55-.03-2.33-.03s-1.56.01-2.33.03c.77-.97,1.55-1.9,2.33-2.78ZM100.23,7.6c.42-.24.92-.36,1.49-.36,1.89,0,4.54,1.28,7.46,3.66.68.55,1.36,1.15,2.04,1.79-1.6,1.77-3.17,3.73-4.68,5.84-2.59.25-5.07.63-7.4,1.13-.22-.91-.39-1.8-.53-2.66-.78-4.85-.17-8.37,1.62-9.41ZM96.46,38.25c-.89-.27-1.75-.56-2.57-.87-4.59-1.75-7.33-4.04-7.33-6.11s2.74-4.35,7.33-6.11c.81-.31,1.67-.6,2.57-.87.73,2.27,1.64,4.61,2.72,6.97-1.08,2.37-1.99,4.71-2.72,6.97ZM109.19,51.65c-2.93,2.38-5.58,3.66-7.46,3.66-.57,0-1.07-.12-1.49-.36-1.79-1.04-2.4-4.55-1.62-9.41.14-.86.32-1.75.53-2.66,2.33.5,4.81.88,7.4,1.13,1.51,2.12,3.08,4.08,4.68,5.84-.68.64-1.36,1.24-2.04,1.79ZM113.9,47.1c-.79-.87-1.56-1.8-2.33-2.78.77.02,1.55.03,2.33.03s1.56-.01,2.33-.03c-.77.97-1.55,1.9-2.33,2.78ZM127.57,54.95c-.42.24-.92.36-1.49.36-1.89,0-4.54-1.28-7.46-3.66-.68-.55-1.36-1.15-2.04-1.79,1.6-1.77,3.17-3.73,4.68-5.84,2.59-.25,5.07-.63,7.4-1.13.22.91.39,1.8.53,2.66.78,4.85.17,8.37-1.62,9.41ZM133.9,37.38c-.81.31-1.67.6-2.57.87-.73-2.27-1.64-4.61-2.72-6.97,1.08-2.37,1.99-4.71,2.72-6.97.89.27,1.75.56,2.57.87,4.59,1.75,7.33,4.04,7.33,6.11s-2.74,4.35-7.33,6.11Z" />
    <circle fill="#fff" cx="113.9" cy="31.27" r="5.45" />
    <path fill="#054a8f"
        d="M45.93,86.53l-8.28-13.36c.68-1.13,1.48-2.52,2.43-4.19,1.65-2.91,3.19-6.24,4.58-9.9,1.64-4.31,2.06-7.75,1.26-10.54-.29-1.03-.78-1.96-1.46-2.77-1.15-1.36-2.46-2.46-3.91-3.28-1.45-.83-3.01-1.39-4.64-1.67-1.43-.24-2.9-.31-4.37-.21l-.28.02c-.78.08-2.09.3-5.76,1.34-1.72.49-3.39,1.12-4.96,1.86-1.89.9-3.87,1.95-5.88,3.13-1.97,1.16-3.86,2.33-5.62,3.5-1.71,1.14-3.54,2.37-5.48,3.68l-3.54,2.4,2.88,3.15c.06.07.43.5,1.85,2.44,1.07,1.46,2.03,2.8,2.9,4,.87,1.21,1.58,2.19,2.11,2.89.12.16.24.32.36.48l3.7,5.01,1.81-3.44,18.66,26.48,2.85,4.05,3.07-3.88,5.5-6.96,1.61-2.04-1.37-2.2Z" />
    <path fill="#ffcb05"
        d="M36.85,67.16c1.56-2.77,3.01-5.9,4.35-9.4,1.33-3.5,1.72-6.24,1.16-8.21-.15-.53-.4-1-.74-1.41-.86-1.01-1.83-1.82-2.91-2.44-1.08-.62-2.22-1.03-3.43-1.24-1.14-.19-2.3-.25-3.48-.16-.08,0-.15.01-.23.02-.83.08-2.52.49-5.08,1.22-1.53.44-2.99.98-4.38,1.65-1.81.86-3.68,1.85-5.6,2.98-1.92,1.13-3.74,2.26-5.44,3.39-1.7,1.13-3.52,2.35-5.45,3.66.33.36,1.03,1.28,2.11,2.75,1.08,1.47,2.05,2.81,2.91,4.02.87,1.21,1.55,2.15,2.06,2.82.5.66.78.99.84.99,0,0,0,0,0,0,.09-.16.3-.57.63-1.25.33-.67.6-1.22.8-1.64.2-.42.32-.63.36-.64l21.96,31.17,5.5-6.96-9.49-15.31c.81-1.24,1.99-3.24,3.56-6.01ZM29.16,66.86l-4.38-7.17c1.27-1.63,3.06-2.78,5.38-3.44.72-.2,1.47-.34,2.25-.39.06,0,.12,0,.17-.01,0,0,0,0,.01,0,.29-.02.48.13.57.46.25.86-.17,2.48-1.24,4.86-1.07,2.38-2,4.28-2.77,5.7Z" />
    <path fill="#054a8f"
        d="M77.49,29.23l-3.75,2.22-11.78,6.97-1.54.91-.06,1.79-.2,5.84-.17,4.93,4.61-1.78.05-.02,8.6,35.79.72,3.01,3.04-.56,11.83-2.16,3.39-.62-.8-3.35-1.13-4.73,15.92,7.04,6.11,2.7-1.62-6.48-2.27-9.09-.38-1.51-1.41-.66-10.74-5.04,9.01-8.98,5.82-5.8-8.21.22-11.09.3-1.02.03-.82.61-5.57,4.09-5.46-21.45-1.07-4.23h0Z" />
    <polygon fill="#ffcb05"
        points="105.27 72.44 90.31 65.42 102.62 53.15 91.52 53.45 82.05 60.41 75.4 34.26 63.62 41.23 63.42 47.06 66.95 45.7 76.42 85.12 88.26 82.96 85.59 71.81 107.54 81.52 105.27 72.44" />
    <path fill="#054a8f"
        d="M58.45,49.17h0c-1.13.08-2.28.28-3.41.59-2.66.72-5.1,2.08-7.26,4.03-2.05,1.86-3.88,4.27-5.42,7.18-2.01,3.77-2.37,8.08-1.09,12.82.72,2.67,1.91,5.11,3.52,7.25,1.7,2.26,3.71,3.93,5.98,4.97h.03s.03.03.03.03c1.41.61,3,.98,4.73,1.1.71.05,1.44.05,2.16,0,1.01-.07,2.04-.25,3.05-.53,1.44-.39,2.86-.99,4.21-1.77,1.34-.77,2.64-1.77,3.86-2.96,1.23-1.19,2.36-2.63,3.37-4.28.99-1.62,1.84-3.46,2.52-5.48.36-1.02.59-2.18.69-3.45.09-1.18.08-2.45-.05-3.77-.13-1.32-.37-2.67-.74-4.01-.45-1.67-1.1-3.25-1.92-4.7-.88-1.56-1.99-2.9-3.29-4.01-1.41-1.19-3.06-2.01-4.9-2.44-1.69-.4-3.33-.61-4.83-.61-.41,0-.83.02-1.24.05h0Z" />
    <path fill="#ffcb05"
        d="M45.35,62.55c-1.6,3-1.87,6.45-.81,10.34.61,2.26,1.6,4.3,2.96,6.11,1.36,1.81,2.92,3.12,4.68,3.92,1.06.46,2.27.73,3.62.83.56.04,1.12.04,1.68,0,.8-.06,1.6-.2,2.41-.42,1.16-.32,2.3-.79,3.4-1.43,1.1-.64,2.17-1.46,3.2-2.46,1.03-1,1.98-2.21,2.84-3.62.87-1.41,1.6-3.02,2.21-4.82.27-.75.44-1.62.51-2.61.08-.99.06-2.06-.05-3.19-.11-1.13-.32-2.28-.64-3.45-.38-1.41-.92-2.71-1.6-3.93-.68-1.21-1.53-2.24-2.53-3.09-1-.85-2.16-1.42-3.47-1.72-1.47-.35-2.82-.52-4.07-.52-.33,0-.66.01-1,.04-.92.07-1.84.23-2.77.48-2.15.58-4.11,1.68-5.88,3.27-1.77,1.6-3.34,3.69-4.7,6.26ZM53.54,63.05c.21-.92.59-1.79,1.12-2.62.54-.83,1.25-1.58,2.13-2.26.88-.67,1.86-1.16,2.93-1.45-.95.71-1.58,1.5-1.87,2.36-.3.86-.34,1.66-.14,2.41.26.97.69,1.58,1.28,1.84.26.09.53.12.81.1.15-.01.3-.04.45-.08.87-.24,1.64-.95,2.3-2.13.66-1.18.96-2.43.9-3.73.38.63.68,1.34.9,2.15.32,1.18.41,2.44.27,3.77-.14,1.33-.55,2.5-1.23,3.51-.68,1.01-1.59,1.67-2.74,1.98-.33.09-.67.15-1.03.17-.91.07-1.9-.07-2.99-.41-1.63-.51-2.65-1.52-3.06-3.02-.22-.81-.22-1.67-.01-2.59Z" />
    <path fill="#054a8f"
        d="M147.96,17.34l-3.41,6.55-28.19,54.12-2.68,5.14,5.79-.19,12.99-.43,2.03-.07.89-1.83,9.48-19.37,2.22.38,10.61,25.8.94,2.29,2.47-.2,10.51-.87,4.55-.38-1.69-4.24-23.8-59.82-2.73-6.86h0Z" />
    <path fill="#ffcb05"
        d="M119.36,79.58l12.99-.43,10.6-21.65,6.57,1.13,11.32,27.53,10.51-.87-23.8-59.82-28.19,54.12ZM143.47,51.52l3.62-8.79,2.32,9.71-5.94-.92Z" />
    <path fill="#054a8f"
        d="M201.94,40.24l-4.63.92-13.57,2.71-1.76.35-.7,1.66-2.43,5.79-2,4.76,4.98-.06-.72,4.79c-.09.46-.18,1.06-.28,1.88l-.02.12-.02.09v.09s-4.81,32.29-4.81,32.29l-.5,3.35,3.35.49,11.2,1.65,3.37.5.47-3.38,2.36-16.84c.52,0,1.05-.01,1.58-.05.36-.03.73-.06,1.09-.11,2.13-.27,4.33-.98,6.55-2.1,2.19-1.1,4.33-2.69,6.37-4.71.77-.75,1.5-1.68,2.16-2.77.61-1.02,1.17-2.16,1.65-3.4.48-1.24.86-2.55,1.14-3.92.34-1.7.48-3.4.39-5.06-.09-1.79-.47-3.49-1.14-5.06-.73-1.7-1.83-3.17-3.29-4.38-2.63-2.23-5.49-3.68-8.48-4.28-.98-.2-1.97-.31-2.98-.33l.04-.32.61-4.68h0Z" />
    <path fill="#ffcb05"
        d="M193.35,77.71c1.38.28,2.79.37,4.23.26.3-.02.61-.05.91-.09,1.75-.23,3.57-.81,5.46-1.76,1.88-.95,3.73-2.32,5.52-4.11.57-.55,1.12-1.25,1.63-2.1.51-.85.98-1.81,1.39-2.87.41-1.06.74-2.18.98-3.36.29-1.43.4-2.84.33-4.23-.07-1.39-.36-2.69-.88-3.89-.52-1.21-1.29-2.24-2.33-3.1-2.23-1.89-4.56-3.08-6.99-3.57-1.18-.24-2.39-.31-3.62-.22-.85.06-1.72.2-2.6.43l.6-4.59-13.57,2.71-2.43,5.79,3.8-.05-1.32,8.8c-.08.39-.17,1.01-.27,1.84l-.05.25-4.8,32.29,11.2,1.65,2.81-20.06ZM196.08,58.27c.39-.93,1.07-1.78,2.04-2.56.97-.78,2.08-1.33,3.32-1.67.5-.14,1.01-.22,1.52-.26.77-.06,1.55,0,2.34.16-1.17.21-2.08.63-2.73,1.27-.65.64-1.05,1.33-1.2,2.09-.2.98-.09,1.72.32,2.22.3.3.67.49,1.11.58.23.05.48.06.73.04.7-.05,1.46-.36,2.28-.92,1.12-.76,1.95-1.74,2.48-2.93.06.73,0,1.5-.16,2.32-.24,1.2-.73,2.36-1.45,3.49-.72,1.13-1.62,1.99-2.68,2.58-.66.37-1.33.58-2.03.63-.43.03-.87,0-1.31-.09-1.18-.24-2.34-.91-3.49-2.01-.44-.45-.78-1.15-1.02-2.12-.24-.96-.27-1.9-.08-2.82Z" />
    <path fill="#054a8f"
        d="M173.92,39.49l-4.14,1.23-12.16,3.6-1.58.47-.5,1.57-1.73,5.48-1.43,4.51,4.54-.47-.26,4.43c-.04.42-.07.98-.1,1.74v.11s-.02.08-.02.08v.08s-1.7,29.87-1.7,29.87l-.18,3.1,3.1.17,10.36.58,3.12.17.15-3.12.75-15.57c.81-.07,1.62-.19,2.43-.37,1.92-.43,3.87-1.25,5.8-2.46,1.9-1.19,3.73-2.81,5.42-4.83.64-.75,1.23-1.66,1.74-2.71.47-.98.89-2.07,1.22-3.24.33-1.17.57-2.4.71-3.67.17-1.58.15-3.14-.06-4.65-.23-1.62-.72-3.14-1.47-4.52-.81-1.49-1.94-2.74-3.36-3.72-2.59-1.81-5.32-2.9-8.09-3.2-.91-.1-1.83-.12-2.74-.05v-.29s.18-4.32.18-4.32h0Z" />
    <path fill="#ffcb05"
        d="M185.21,52.54c-.57-1.06-1.37-1.94-2.39-2.63-2.19-1.54-4.42-2.43-6.68-2.68-.73-.08-1.46-.09-2.19-.04-1.15.08-2.3.33-3.47.74l.16-4.24-12.16,3.6-1.73,5.48,3.47-.36-.47,8.15c-.04.37-.07.93-.09,1.7l-.02.23-1.69,29.87,10.36.58.89-18.54c.85.09,1.7.11,2.56.05.71-.05,1.43-.16,2.15-.32,1.58-.35,3.19-1.04,4.83-2.06,1.64-1.02,3.21-2.43,4.7-4.21.48-.55.91-1.24,1.31-2.06.4-.82.74-1.73,1.03-2.74.29-1,.49-2.05.61-3.15.15-1.33.13-2.62-.05-3.88-.18-1.26-.55-2.42-1.12-3.48ZM181.1,55.74c-.12,1.11-.47,2.21-1.03,3.3-.57,1.09-1.31,1.95-2.23,2.58-.68.47-1.41.73-2.18.79-.27.02-.54.01-.82-.02-1.1-.12-2.22-.64-3.35-1.55-.44-.37-.81-.99-1.11-1.85-.3-.86-.4-1.71-.31-2.57.28-.88.83-1.71,1.65-2.51.82-.79,1.78-1.39,2.89-1.8.66-.24,1.34-.39,2.05-.44.48-.04.97-.03,1.47.03-1.05.29-1.85.75-2.39,1.38-.54.64-.85,1.3-.93,2.01-.1.92.06,1.58.48,2,.3.25.65.4,1.06.44.14.02.29.02.43,0,.7-.05,1.45-.4,2.24-1.06.96-.79,1.63-1.75,2.02-2.88.11.66.13,1.37.04,2.14Z" />
    <path fill="#054a8f"
        d="M114.3,41.36h-.12c-1.89.16-3.74.53-5.5,1.12-1.76.59-3.47,1.41-5.07,2.44-1.61,1.04-3.1,2.3-4.42,3.77-1.31,1.45-2.36,3.63-3.24,6.66-.83,2.88-1.13,5.81-.91,8.71.31,3.94,1.63,7.19,3.94,9.66,1.47,1.59,3.44,2.71,5.85,3.32,2.08.53,4.41.7,6.91.52h.15c2.77-.23,5.55-.83,8.27-1.8,2.76-.98,5.17-2.25,7.16-3.77,2.33-1.77,3.8-3.78,4.37-5.97l.48-1.84-1.32-1.37-6.61-6.81-.05-.05,4.39-6.15,1.9-2.67-2.6-1.99c-1.88-1.44-4.05-2.49-6.43-3.13-2.29-.61-4.69-.83-7.15-.65h0Z" />
    <path fill="#ffcb05"
        d="M120.57,45.28c-1.93-.52-3.94-.7-6.02-.55-.03,0-.07,0-.1,0-1.62.13-3.18.44-4.69.95-1.51.5-2.94,1.2-4.31,2.08-1.37.88-2.62,1.94-3.74,3.19-.94,1.05-1.77,2.82-2.49,5.32-.72,2.5-.98,5-.79,7.51.25,3.17,1.26,5.71,3.04,7.62,1.03,1.11,2.43,1.89,4.2,2.34,1.74.44,3.68.58,5.84.42.04,0,.09,0,.13,0,2.49-.19,4.95-.73,7.4-1.6,2.44-.87,4.52-1.96,6.24-3.27,1.72-1.31,2.77-2.69,3.14-4.13l-6.61-6.81c-.62,1.33-1.35,2.5-2.19,3.51-.84,1.02-1.79,1.82-2.85,2.41-1.05.6-2.19.94-3.41,1.04l12.46-17.48c-1.54-1.17-3.29-2.02-5.25-2.55ZM107.47,63.18c-.36-.91-.62-1.63-.77-2.16-.16-.53-.26-1.08-.31-1.66-.13-1.6.28-3.11,1.21-4.53.31-.53.87-1.01,1.69-1.44.81-.43,1.67-.69,2.57-.76,0,0,.02,0,.03,0,.84-.06,1.68.08,2.53.43l-6.94,10.12Z" />
</svg>
